<!-- Generator: Adobe Illustrator 22.0.1, SVG Export Plug-In  -->
<svg version="1.1"
	 xmlns="http://www.w3.org/2000/svg" xmlns:xlink="http://www.w3.org/1999/xlink" xmlns:a="http://ns.adobe.com/AdobeSVGViewerExtensions/3.0/"
	 x="0px" y="0px" width="28px" height="19.4px" viewBox="0 0 28 19.4" style="enable-background:new 0 0 28 19.4;"
	 xml:space="preserve">
<style type="text/css">
	.st0{fill:#F99393;}
	.st1{fill:#FDBAB9;}
</style>
<defs>
</defs>
<g>
	<path class="st0" d="M26.4,3.3H1.6C0.7,3.3,0,2.6,0,1.6S0.7,0,1.6,0h24.7C27.3,0,28,0.7,28,1.6S27.3,3.3,26.4,3.3z"/>
</g>
<g>
	<path class="st0" d="M26.4,19.4H1.6c-0.9,0-1.6-0.7-1.6-1.6c0-0.9,0.7-1.6,1.6-1.6h24.7c0.9,0,1.6,0.7,1.6,1.6
		C28,18.7,27.3,19.4,26.4,19.4z"/>
</g>
<g>
	<path class="st0" d="M15.6,11.3h-14C0.7,11.3,0,10.6,0,9.7c0-0.9,0.7-1.6,1.6-1.6h14c0.9,0,1.6,0.7,1.6,1.6
		C17.3,10.6,16.6,11.3,15.6,11.3z"/>
</g>
<g>
	<path class="st1" d="M26.4,11.3h-3.3c-0.9,0-1.6-0.7-1.6-1.6c0-0.9,0.7-1.6,1.6-1.6h3.3c0.9,0,1.6,0.7,1.6,1.6
		C28,10.6,27.3,11.3,26.4,11.3z"/>
</g>
</svg>
