<!-- Generator: Adobe Illustrator 22.0.1, SVG Export Plug-In  -->
<svg version="1.1"
	 xmlns="http://www.w3.org/2000/svg" xmlns:xlink="http://www.w3.org/1999/xlink" xmlns:a="http://ns.adobe.com/AdobeSVGViewerExtensions/3.0/"
	 x="0px" y="0px" width="21px" height="21px" viewBox="0 0 21 21" style="enable-background:new 0 0 21 21;" xml:space="preserve">
<style type="text/css">
	.st0{fill:#F99393;}
	.st1{fill:#FDBAB9;}
</style>
<defs>
</defs>
<g>
	<path class="st0" d="M20.5,2.8L2.8,20.5c-0.7,0.7-1.7,0.7-2.4,0s-0.7-1.7,0-2.4L18.2,0.5c0.7-0.7,1.7-0.7,2.4,0S21.2,2.2,20.5,2.8z
		"/>
</g>
<g>
	<path class="st0" d="M2.8,0.5c-0.7-0.7-1.7-0.7-2.4,0c-0.7,0.7-0.7,1.7,0,2.4l11.8,11.8c0.7,0.7,1.7,0.7,2.4,0
		c0.7-0.7,0.7-1.7,0-2.4L2.8,0.5z"/>
	<path class="st1" d="M20.5,18.2l-2.4-2.4c-0.7-0.7-1.7-0.7-2.4,0c-0.7,0.7-0.7,1.7,0,2.4l2.4,2.4c0.7,0.7,1.7,0.7,2.4,0
		C21.2,19.9,21.2,18.8,20.5,18.2z"/>
</g>
</svg>
